<svg xmlns="http://www.w3.org/2000/svg" viewBox="0 0 80 80" fill="none">
  <rect width="80" height="80" fill="#080806"/>
  <path d="M52 18C56 14 62 13 65 16C68 19 66 24 63 25C60 26 58 24 57 22C55 28 58 30 62 28C60 33 54 32 52 28L50 35C53 37 56 40 56 45C56 52 50 58 44 60C50 62 60 62 65 56C68 60 65 66 60 68C54 70 46 68 42 64C38 68 30 70 24 68C19 66 16 60 19 56C24 62 34 62 40 60C34 58 28 52 28 45C28 40 31 37 34 35L32 28C30 32 24 33 22 28C26 30 29 28 27 22C26 24 24 26 21 25C18 24 16 19 19 16C22 13 28 14 32 18C35 14 38 12 42 12C46 12 49 14 52 18Z" stroke="#f37036" stroke-width="2.4" fill="none" stroke-linejoin="round"/>
  <path d="M35 26C33 22 34 18 37 17C39 15 42 15 43 17C45 18 46 22 44 26" stroke="#fec02e" stroke-width="2.2" fill="none"/>
</svg>
