<svg xmlns="http://www.w3.org/2000/svg" viewBox="0 0 1600 1082" role="img" aria-labelledby="leonTitle">
  <title id="leonTitle">Isotipo TRF Bank — león en degradado naranja a amarillo</title>
  <g transform="translate(0,1082) scale(0.1,-0.1)" fill="url(#trfLionGrad)" stroke="none">
    <defs>
      <linearGradient id="trfLionGrad" gradientUnits="userSpaceOnUse" x1="8000" y1="10820" x2="8000" y2="0">
        <stop offset="0%" stop-color="#f37036"/>
        <stop offset="100%" stop-color="#fec02e"/>
      </linearGradient>
    </defs>
    <path d="M11830 9959 c-77 -24 -120 -77 -99 -122 16 -35 55 -54 172 -81 365
-87 583 -346 581 -691 0 -117 -10 -177 -51 -318 -41 -144 -30 -156 177 -181
347 -43 598 -132 799 -282 117 -87 195 -233 263 -488 l13 -48 76 -28 c187 -68
356 -188 441 -313 104 -153 113 -321 29 -532 -29 -71 -108 -206 -121 -204 -3
0 -22 22 -42 49 -21 27 -68 75 -105 105 -284 235 -678 285 -945 119 -157 -97
-247 -268 -255 -489 -18 -448 264 -784 660 -785 l77 0 -6 -42 c-34 -244 -142
-378 -432 -539 -171 -94 -272 -180 -365 -309 -134 -187 -163 -341 -137 -730
17 -254 -14 -412 -116 -602 -101 -188 -117 -225 -110 -253 16 -62 86 -32 220
95 215 205 294 400 316 785 22 387 93 523 377 716 230 157 339 273 429 456 74
150 107 366 85 566 -15 147 -11 144 -185 148 l-144 4 -88 45 c-154 78 -219
186 -219 360 1 192 109 308 306 329 172 18 331 -43 463 -178 l49 -49 -60 -74
c-89 -109 -101 -144 -69 -207 37 -71 99 -78 182 -22 302 203 571 600 616 908
53 367 -280 768 -733 883 l-46 12 -23 96 c-94 395 -480 707 -972 784 l-80 13
6 35 c17 109 18 328 2 408 -59 294 -284 526 -606 626 -96 30 -270 43 -330 25z"/>
    <path d="M10725 9849 c-262 -51 -713 -267 -1080 -517 -519 -353 -956 -850
-1277 -1452 -112 -210 -263 -560 -379 -879 -247 -683 -625 -1105 -1261 -1410
-285 -137 -467 -195 -803 -257 -115 -21 -428 -29 -551 -15 -822 96 -1282 789
-1003 1512 100 258 356 485 634 560 127 35 351 33 461 -4 155 -52 268 -154
345 -313 l40 -82 -35 -63 c-206 -378 -75 -781 294 -905 90 -31 273 -25 370 10
181 67 315 182 386 331 50 104 25 138 -71 97 -175 -74 -368 -22 -481 130 -61
82 -83 132 -139 313 -129 418 -302 640 -593 763 -250 106 -550 106 -834 -2
-429 -161 -769 -605 -827 -1081 -76 -622 261 -1190 879 -1479 328 -153 806
-189 1270 -96 568 114 1052 371 1451 769 227 227 374 430 522 721 38 74 66
126 63 115 -27 -99 -34 -553 -11 -750 73 -615 305 -1116 686 -1479 276 -263
541 -333 344 -91 -335 413 -491 709 -620 1176 -137 496 -134 1129 9 1689 233
915 842 1705 1690 2194 138 80 372 196 486 241 190 75 238 113 225 180 -13 69
-80 95 -190 74z m-4684 -3257 c79 -134 252 -271 366 -289 35 -6 36 -7 12 -16
-13 -5 -58 -9 -99 -9 -206 0 -330 128 -337 347 -3 95 -3 98 11 62 7 -20 29
-63 47 -95z"/>
    <path d="M8772 6303 c-73 -107 -97 -229 -97 -488 1 -466 100 -733 462 -1243
232 -327 324 -573 293 -783 -20 -142 -61 -235 -196 -452 -49 -80 -53 -96 -24
-122 40 -37 162 29 294 159 252 247 387 583 390 973 1 83 2 150 4 148 29 -29
74 -323 79 -520 7 -281 -16 -431 -103 -666 -24 -65 -26 -79 -15 -93 46 -55
159 42 275 233 211 349 215 846 10 1262 -87 176 -181 311 -359 519 -153 178
-248 315 -316 453 -55 113 -64 121 -93 92 -66 -66 -30 -260 123 -670 69 -187
101 -356 100 -530 0 -86 -14 -219 -18 -175 -2 34 -64 209 -100 286 -43 91
-140 253 -215 359 -243 343 -411 798 -432 1168 -6 103 -9 117 -25 117 -10 0
-26 -12 -37 -27z"/>
    <path d="M3994 5507 l-39 -36 2 -83 c2 -118 33 -222 113 -384 63 -128 173
-297 238 -366 14 -15 24 -30 21 -32 -2 -2 -35 -21 -74 -42 -333 -181 -542
-443 -739 -929 -113 -277 -108 -272 -262 -244 -460 83 -811 -65 -1072 -453
-147 -219 -248 -498 -332 -918 -62 -313 -80 -487 -87 -838 l-6 -282 172 2 171
3 5 150 c22 624 79 994 216 1400 160 472 460 695 846 629 64 -11 156 -19 228
-19 118 0 121 1 196 37 133 65 182 134 297 424 98 247 140 339 192 430 102
177 236 332 383 443 l56 43 78 -56 c206 -147 338 -193 378 -132 24 37 8 62
-128 203 -368 381 -546 630 -657 920 -47 122 -69 151 -122 160 -31 4 -41 0
-74 -30z"/>
    <path d="M10310 4735 c0 -20 13 -118 30 -218 46 -285 53 -367 47 -532 -24
-601 -251 -975 -685 -1126 -357 -125 -691 -431 -823 -756 -151 -369 -124 -730
58 -783 21 -6 130 -15 243 -20 231 -10 262 -16 310 -62 55 -55 74 -108 77
-228 l3 -105 128 -3 129 -3 7 54 c14 121 -24 276 -97 398 -102 172 -279 267
-510 272 l-77 2 0 45 c0 246 140 556 332 736 92 86 288 205 288 175 0 -6 -6
-14 -13 -18 -58 -36 -154 -215 -187 -346 -55 -222 -1 -507 97 -507 30 0 47 28
72 123 70 260 248 455 517 567 93 38 103 36 66 -16 -66 -91 -77 -134 -39 -159
39 -25 165 23 304 117 86 57 76 57 166 12 162 -82 253 -155 369 -300 183 -228
392 -722 459 -1087 l12 -67 165 0 164 0 -5 23 c-3 12 -15 76 -27 142 -105 596
-442 1190 -803 1418 l-48 31 158 56 c214 77 396 175 524 280 l46 38 75 -221
c41 -122 117 -341 168 -487 51 -146 130 -377 177 -515 91 -271 161 -427 206
-459 24 -17 43 -21 115 -21 82 0 94 3 216 53 184 76 253 80 321 21 53 -47 70
-104 70 -242 l0 -117 141 0 c77 0 143 2 145 5 9 9 -12 191 -31 267 -32 129
-76 207 -169 296 -149 143 -354 162 -560 51 -30 -16 -56 -28 -57 -26 -1 1 -52
148 -113 327 -60 179 -154 449 -207 600 -53 151 -128 368 -168 481 l-71 207
67 70 c258 273 407 694 370 1040 -20 183 -77 360 -137 425 -31 32 -35 33 -69
6 -24 -19 -26 -26 -26 -97 0 -350 -134 -767 -335 -1047 -165 -230 -446 -465
-720 -602 -130 -65 -137 -65 -78 3 181 210 283 481 283 753 0 188 -60 413
-116 435 -41 16 -54 -11 -89 -192 -101 -515 -352 -869 -766 -1078 -84 -42 -94
-39 -47 14 130 144 227 350 279 592 37 168 34 515 -5 694 -39 182 -76 287
-152 438 -96 187 -174 265 -174 173z"/>
    <path d="M5453 3985 c-32 -22 -31 -74 1 -106 13 -14 69 -49 123 -79 114 -63
220 -139 283 -204 l44 -46 -17 -103 c-31 -182 -143 -482 -229 -614 -125 -191
-285 -313 -528 -401 -238 -87 -609 -89 -904 -6 -50 14 -114 32 -141 39 -28 8
-125 42 -215 76 -282 106 -323 120 -398 135 -324 63 -577 -75 -741 -403 -120
-241 -190 -766 -116 -879 25 -39 69 -54 188 -65 289 -26 339 -42 393 -121 34
-50 52 -125 57 -233 l3 -70 124 0 125 0 -2 97 c-8 338 -188 538 -507 564 l-86
7 6 56 c21 209 57 357 118 488 54 113 109 174 194 214 101 48 162 41 372 -43
413 -166 417 -167 645 -212 288 -57 670 -53 847 10 30 10 40 11 43 1 2 -7 34
-115 71 -242 36 -126 81 -277 100 -335 43 -129 107 -364 138 -502 l23 -103
177 -3 c121 -2 176 1 176 8 0 19 -60 250 -90 350 -16 52 -64 214 -106 360
-130 452 -151 525 -158 547 -6 19 3 29 64 69 301 198 499 542 562 976 l13 86
100 -126 c240 -304 560 -579 830 -714 44 -22 82 -42 83 -43 8 -7 -80 -114
-133 -163 -139 -127 -279 -159 -560 -127 -333 38 -481 9 -567 -112 -91 -126
-68 -394 57 -658 97 -205 204 -237 466 -142 254 92 373 81 455 -42 27 -41 57
-174 52 -231 l-3 -35 144 -3 144 -3 -6 108 c-11 224 -100 384 -262 471 -157
85 -383 86 -584 2 -86 -35 -84 -37 -118 61 -39 112 -44 225 -10 265 l25 29
254 1 c278 2 335 9 478 64 168 65 371 271 405 413 9 32 -1 32 87 3 126 -42
304 -71 490 -78 61 -3 67 -5 63 -23 -18 -78 -36 -178 -52 -285 -25 -179 -23
-684 3 -885 l19 -140 164 -3 163 -3 -6 33 c-39 220 -37 672 5 936 97 624 305
1126 669 1617 106 143 120 173 90 197 -56 46 -253 -57 -423 -221 -189 -182
-415 -567 -521 -888 -15 -46 -31 -85 -34 -87 -33 -19 -430 44 -559 88 -383
133 -644 335 -1096 848 -229 260 -400 409 -562 491 -128 64 -356 105 -402 72z"/>
  </g>
</svg>
